<?xml version="1.0" encoding="utf-8"?>
<!-- Generator: Adobe Illustrator 18.1.0, SVG Export Plug-In . SVG Version: 6.00 Build 0)  -->
<svg version="1.1" id="レイヤー_1" xmlns="http://www.w3.org/2000/svg" xmlns:xlink="http://www.w3.org/1999/xlink" x="0px" width="auto" height="65px"
	 y="0px" viewBox="0 0 253 65" enable-background="new 0 0 253 65" xml:space="preserve">
<g>
	<g>
		<path fill="#717071" d="M137.7,50.1c-0.7,0.8-1.7,1.4-2.9,1.4c-1.4,0-2.6-0.7-3.2-1.8c-0.3-0.6-0.5-1.2-0.5-1.9
			c0-0.5,0.1-1,0.3-1.5c0.1-0.2,0.1-0.3,0.2-0.4c0.2-0.3,0.4-0.5,0.6-0.8c0.7-0.7,1.6-1.1,2.7-1.1c1.2,0,2.2,0.5,2.9,1.4
			c0.3-0.6,0.6-1.1,1-1.6c0,0,0.1-0.1,0.1-0.1c-0.5-0.4-1-0.8-1.6-1.1c-0.7-0.3-1.5-0.5-2.4-0.5c-0.6,0-1.3,0.1-1.8,0.3
			c-0.9,0.3-1.6,0.8-2.2,1.4c-0.1,0.1-0.2,0.2-0.2,0.2c-0.5,0.5-0.8,1.1-1.1,1.8c-0.1,0.2-0.1,0.3-0.1,0.5c0,0.1,0,0.1,0,0.2
			c-0.1,0.4-0.2,0.8-0.2,1.3c0,0.4,0.1,0.9,0.2,1.3c0.1,0.2,0.1,0.5,0.2,0.7c0.2,0.7,0.6,1.3,1.1,1.8c0.1,0.1,0.1,0.2,0.2,0.2
			c0.6,0.6,1.4,1.1,2.2,1.4c0.6,0.2,1.2,0.3,1.8,0.3c0.9,0,1.7-0.2,2.4-0.5c0.6-0.3,1.1-0.6,1.6-1.1c0,0-0.1-0.1-0.1-0.1
			C138.2,51.2,137.9,50.6,137.7,50.1"/>
		<path fill="#717071" d="M125.3,41.9c-1.7,0-3.3,0.8-4.3,2c-0.5,0.5-0.8,1.1-1.1,1.8c-0.2,0.6-0.3,1.3-0.3,1.9s0.1,1.3,0.3,1.9
			c0.2,0.7,0.6,1.3,1.1,1.8c1,1.2,2.6,2,4.3,2c3.2,0,5.7-2.6,5.7-5.7C131,44.5,128.4,41.9,125.3,41.9 M125.3,51.4
			c-1.4,0-2.6-0.7-3.2-1.8c-0.3-0.6-0.5-1.2-0.5-1.9c0-0.7,0.2-1.4,0.5-1.9c0.7-1.1,1.9-1.8,3.2-1.8c2.1,0,3.8,1.7,3.8,3.8
			C129,49.7,127.4,51.4,125.3,51.4"/>
		<path fill="#717071" d="M115.8,41.9c-1.7,0-3.3,0.8-4.3,2c-0.5,0.5-0.8,1.1-1.1,1.8c-0.2,0.6-0.3,1.3-0.3,1.9s0.1,1.3,0.3,1.9
			c0.2,0.7,0.6,1.3,1.1,1.8c1,1.2,2.6,2,4.3,2c3.2,0,5.7-2.6,5.7-5.7C121.5,44.5,118.9,41.9,115.8,41.9 M115.8,51.4
			c-1.4,0-2.6-0.7-3.2-1.8c-0.3-0.6-0.5-1.2-0.5-1.9c0-0.7,0.2-1.4,0.5-1.9c0.7-1.1,1.9-1.8,3.2-1.8c2.1,0,3.8,1.7,3.8,3.8
			C119.6,49.7,117.9,51.4,115.8,51.4"/>
		<path fill="#717071" d="M105.9,42.1c-2.1,0-3.9,1.1-5,2.7c-1.1-1.6-2.9-2.7-5-2.7c-3.3,0-6,2.7-6,6v5.3h1.9V48c0-2.2,1.8-4,4-4
			c2.2,0,4,1.8,4,4v5.3h1.9V48c0-2.2,1.8-4,4-4c2.2,0,4,1.8,4,4v5.3h1.9V48C111.8,44.7,109.2,42.1,105.9,42.1"/>
		<polygon fill="#717071" points="32.4,46 32.4,45.1 39,45.1 39,46 36.3,46 36.3,53.3 35.2,53.3 35.2,46 		"/>
		<path fill="#717071" d="M40.8,45.1v3.2h0c0.1-0.2,0.2-0.3,0.3-0.5c0.1-0.1,0.3-0.2,0.5-0.3c0.2-0.1,0.4-0.1,0.5-0.2
			c0.2,0,0.4-0.1,0.6-0.1c0.4,0,0.7,0.1,1,0.2c0.3,0.1,0.5,0.3,0.6,0.4c0.2,0.2,0.3,0.4,0.3,0.7c0.1,0.3,0.1,0.6,0.1,0.9v3.9h-1v-4
			c0-0.4-0.1-0.7-0.3-0.9c-0.2-0.2-0.5-0.3-0.9-0.3c-0.3,0-0.6,0-0.8,0.1c-0.2,0.1-0.4,0.2-0.6,0.4c-0.1,0.2-0.3,0.4-0.3,0.6
			c-0.1,0.2-0.1,0.5-0.1,0.7v3.4h-1v-8.3L40.8,45.1L40.8,45.1z"/>
		<path fill="#717071" d="M50.4,52.9c-0.4,0.3-1,0.5-1.7,0.5c-0.5,0-0.9-0.1-1.2-0.2c-0.4-0.2-0.6-0.4-0.9-0.6
			c-0.2-0.3-0.4-0.6-0.5-1c-0.1-0.4-0.2-0.8-0.2-1.3c0-0.5,0.1-0.9,0.2-1.3c0.1-0.4,0.3-0.7,0.6-1c0.3-0.3,0.5-0.5,0.9-0.6
			c0.3-0.2,0.7-0.2,1.1-0.2c0.5,0,1,0.1,1.3,0.3c0.4,0.2,0.6,0.5,0.8,0.8c0.2,0.3,0.4,0.7,0.4,1.1c0.1,0.4,0.1,0.8,0.1,1.1h-4.5
			c0,0.3,0,0.5,0.1,0.7c0.1,0.2,0.2,0.4,0.3,0.6c0.2,0.2,0.4,0.3,0.6,0.4c0.2,0.1,0.5,0.2,0.8,0.2c0.4,0,0.8-0.1,1-0.3
			c0.3-0.2,0.4-0.5,0.5-0.9h1C51.2,52.1,50.9,52.6,50.4,52.9 M50.2,49.1c-0.1-0.2-0.2-0.4-0.4-0.5c-0.2-0.2-0.3-0.3-0.5-0.4
			c-0.2-0.1-0.4-0.1-0.7-0.1c-0.3,0-0.5,0-0.7,0.1c-0.2,0.1-0.4,0.2-0.5,0.4c-0.1,0.2-0.3,0.3-0.3,0.5c-0.1,0.2-0.1,0.4-0.2,0.7h3.4
			C50.3,49.5,50.3,49.3,50.2,49.1"/>
		<path fill="#717071" d="M59.9,52.1c-0.1,0.3-0.2,0.5-0.4,0.7c-0.2,0.2-0.4,0.4-0.8,0.5c-0.3,0.1-0.7,0.2-1.2,0.2
			c-0.8,0-1.4-0.2-1.8-0.6c-0.4-0.4-0.6-1-0.6-1.8v-0.5h1.1v0.3c0,0.2,0,0.5,0.1,0.7c0,0.2,0.1,0.4,0.2,0.5c0.1,0.1,0.2,0.3,0.4,0.3
			c0.2,0.1,0.4,0.1,0.7,0.1c0.5,0,0.8-0.1,1-0.4c0.2-0.3,0.3-0.6,0.3-1.1v-6H60v6.2C60,51.5,60,51.8,59.9,52.1"/>
		<path fill="#717071" d="M66.2,53.4c-0.3,0-0.5-0.1-0.6-0.2c-0.1-0.1-0.2-0.4-0.2-0.7c-0.3,0.3-0.6,0.6-0.9,0.7
			c-0.4,0.1-0.7,0.2-1.2,0.2c-0.3,0-0.5,0-0.8-0.1c-0.2-0.1-0.4-0.2-0.6-0.3c-0.2-0.1-0.3-0.3-0.4-0.5c-0.1-0.2-0.2-0.5-0.2-0.8
			c0-0.3,0.1-0.6,0.2-0.8c0.1-0.2,0.3-0.4,0.5-0.5c0.2-0.1,0.4-0.2,0.6-0.3c0.2-0.1,0.5-0.1,0.7-0.2c0.3-0.1,0.5-0.1,0.8-0.1
			c0.2,0,0.5-0.1,0.6-0.1c0.2-0.1,0.3-0.1,0.4-0.2c0.1-0.1,0.2-0.2,0.2-0.4c0-0.2,0-0.4-0.1-0.5c-0.1-0.1-0.2-0.2-0.3-0.3
			c-0.1-0.1-0.3-0.1-0.4-0.1c-0.2,0-0.3,0-0.5,0c-0.4,0-0.8,0.1-1,0.2c-0.3,0.2-0.4,0.5-0.5,0.9h-1c0-0.4,0.1-0.7,0.2-0.9
			c0.1-0.3,0.3-0.5,0.6-0.6c0.2-0.2,0.5-0.3,0.8-0.3c0.3-0.1,0.6-0.1,0.9-0.1c0.3,0,0.5,0,0.8,0.1c0.3,0,0.5,0.1,0.7,0.2
			c0.2,0.1,0.4,0.3,0.5,0.5c0.1,0.2,0.2,0.5,0.2,0.8v3.1c0,0.2,0,0.4,0,0.5c0,0.1,0.1,0.2,0.3,0.2c0.1,0,0.2,0,0.3-0.1v0.8
			C66.8,53.4,66.5,53.4,66.2,53.4 M64.9,50.4c-0.2,0-0.4,0.1-0.6,0.1c-0.2,0-0.4,0.1-0.7,0.1c-0.2,0-0.4,0.1-0.6,0.2
			c-0.2,0.1-0.3,0.2-0.4,0.3c-0.1,0.1-0.2,0.3-0.2,0.6c0,0.2,0,0.3,0.1,0.4c0.1,0.1,0.2,0.2,0.3,0.3c0.1,0.1,0.2,0.1,0.4,0.2
			c0.1,0,0.3,0,0.4,0c0.3,0,0.6,0,0.8-0.1c0.2-0.1,0.4-0.2,0.6-0.3c0.1-0.1,0.3-0.3,0.3-0.4c0.1-0.2,0.1-0.3,0.1-0.4v-1
			C65.2,50.3,65.1,50.4,64.9,50.4"/>
		<path fill="#717071" d="M68.9,47.3v0.8h0c0.2-0.3,0.4-0.6,0.8-0.7c0.3-0.1,0.7-0.2,1.1-0.2c0.5,0,0.9,0.1,1.2,0.3
			c0.3,0.2,0.6,0.4,0.9,0.7c0.2,0.3,0.4,0.6,0.5,1c0.1,0.4,0.2,0.8,0.2,1.2c0,0.4-0.1,0.8-0.2,1.2c-0.1,0.4-0.3,0.7-0.5,1
			c-0.2,0.3-0.5,0.5-0.9,0.7c-0.3,0.2-0.7,0.2-1.2,0.2c-0.1,0-0.3,0-0.5,0c-0.2,0-0.4-0.1-0.5-0.2c-0.2-0.1-0.3-0.2-0.5-0.3
			c-0.2-0.1-0.3-0.3-0.4-0.4h0v3.1h-1v-8.3L68.9,47.3L68.9,47.3L68.9,47.3z M72.4,49.5c-0.1-0.3-0.2-0.5-0.3-0.7
			c-0.2-0.2-0.3-0.4-0.6-0.5c-0.2-0.1-0.5-0.2-0.8-0.2c-0.3,0-0.6,0.1-0.8,0.2c-0.2,0.1-0.4,0.3-0.6,0.5c-0.1,0.2-0.3,0.5-0.3,0.7
			c-0.1,0.3-0.1,0.5-0.1,0.8c0,0.3,0,0.6,0.1,0.9c0.1,0.3,0.2,0.5,0.3,0.7c0.1,0.2,0.3,0.4,0.6,0.5c0.2,0.1,0.5,0.2,0.9,0.2
			c0.3,0,0.6-0.1,0.8-0.2c0.2-0.1,0.4-0.3,0.5-0.5c0.1-0.2,0.2-0.5,0.3-0.7s0.1-0.6,0.1-0.9C72.5,50,72.5,49.7,72.4,49.5"/>
		<path fill="#717071" d="M79.3,53.4c-0.3,0-0.5-0.1-0.6-0.2c-0.2-0.1-0.2-0.4-0.2-0.7c-0.3,0.3-0.6,0.6-0.9,0.7
			c-0.4,0.1-0.7,0.2-1.2,0.2c-0.3,0-0.5,0-0.8-0.1c-0.2-0.1-0.4-0.2-0.6-0.3c-0.2-0.1-0.3-0.3-0.4-0.5c-0.1-0.2-0.2-0.5-0.2-0.8
			c0-0.3,0.1-0.6,0.2-0.8c0.1-0.2,0.3-0.4,0.5-0.5c0.2-0.1,0.4-0.2,0.6-0.3c0.2-0.1,0.5-0.1,0.7-0.2c0.3-0.1,0.5-0.1,0.8-0.1
			c0.2,0,0.5-0.1,0.6-0.1c0.2-0.1,0.3-0.1,0.4-0.2c0.1-0.1,0.2-0.2,0.2-0.4c0-0.2,0-0.4-0.1-0.5c-0.1-0.1-0.2-0.2-0.3-0.3
			c-0.1-0.1-0.3-0.1-0.4-0.1c-0.2,0-0.3,0-0.5,0c-0.4,0-0.8,0.1-1,0.2c-0.3,0.2-0.4,0.5-0.5,0.9h-1c0-0.4,0.1-0.7,0.2-0.9
			c0.1-0.3,0.3-0.5,0.6-0.6c0.2-0.2,0.5-0.3,0.8-0.3c0.3-0.1,0.6-0.1,0.9-0.1c0.3,0,0.5,0,0.8,0.1c0.3,0,0.5,0.1,0.7,0.2
			c0.2,0.1,0.4,0.3,0.5,0.5c0.1,0.2,0.2,0.5,0.2,0.8v3.1c0,0.2,0,0.4,0,0.5c0,0.1,0.1,0.2,0.3,0.2c0.1,0,0.2,0,0.3-0.1v0.8
			C79.8,53.4,79.6,53.4,79.3,53.4 M77.9,50.4c-0.2,0-0.4,0.1-0.6,0.1c-0.2,0-0.4,0.1-0.7,0.1c-0.2,0-0.4,0.1-0.6,0.2
			c-0.2,0.1-0.3,0.2-0.4,0.3c-0.1,0.1-0.2,0.3-0.2,0.6c0,0.2,0,0.3,0.1,0.4c0.1,0.1,0.2,0.2,0.3,0.3c0.1,0.1,0.2,0.1,0.4,0.2
			c0.1,0,0.3,0,0.4,0c0.3,0,0.6,0,0.8-0.1c0.2-0.1,0.4-0.2,0.6-0.3c0.1-0.1,0.3-0.3,0.3-0.4c0.1-0.2,0.1-0.3,0.1-0.4v-1
			C78.3,50.3,78.1,50.4,77.9,50.4"/>
		<path fill="#717071" d="M81.8,47.3v0.9h0c0.4-0.7,1.1-1.1,1.9-1.1c0.4,0,0.7,0.1,1,0.2c0.3,0.1,0.5,0.3,0.6,0.4
			c0.2,0.2,0.3,0.4,0.3,0.7c0.1,0.3,0.1,0.6,0.1,0.9v3.9h-1v-4c0-0.4-0.1-0.7-0.3-0.9c-0.2-0.2-0.5-0.3-0.9-0.3
			c-0.3,0-0.6,0-0.8,0.1c-0.2,0.1-0.4,0.2-0.6,0.4c-0.1,0.2-0.3,0.4-0.3,0.6c-0.1,0.2-0.1,0.5-0.1,0.7v3.4h-1v-6L81.8,47.3
			L81.8,47.3L81.8,47.3z"/>
	</g>
	<path fill="#CF0F31" d="M28.5,28.4c-0.5-0.5-0.9-1.1-1.2-1.6c-1-1.4-1.7-3-2.2-4.6c-1.9,2.9-5.2,4.8-8.9,4.8
		c-5.9,0-10.7-4.8-10.7-10.7S10.3,5.5,16.2,5.5c3.7,0,7,1.9,8.9,4.8c0.5-1.6,1.3-3.1,2.2-4.6c0.2-0.2,0.3-0.5,0.5-0.7
		c-2.9-3-7-5-11.6-5C7.3,0,0,7.3,0,16.2c0,8.9,7.3,16.2,16.2,16.2c2.3,0,4.5-0.5,6.5-1.4v11.6l0,0.1c0,9-8.2,16.1-17.2,16.1v5.8
		c12.2,0,23-9.9,23-22.1C28.5,42.6,28.5,32.5,28.5,28.4z"/>
	<path fill="#CF0F31" d="M123.8,0c-4.9,0-9.4,2.2-12.4,5.8c-0.4,0.5-0.8,0.9-1.1,1.5c-1.7,2.6-2.7,5.7-2.7,9s1,6.4,2.7,9
		c0.3,0.5,0.7,1,1.1,1.5c3,3.5,7.4,5.8,12.4,5.8c8.9,0,16.2-7.3,16.2-16.2S132.7,0,123.8,0 M123.8,26.9c-4.2,0-7.9-2.5-9.6-6
		c-0.7-1.4-1.1-3-1.1-4.7s0.4-3.3,1.1-4.7c1.7-3.6,5.4-6,9.6-6c5.9,0,10.7,4.8,10.7,10.7S129.7,26.9,123.8,26.9"/>
	<path fill="#CF0F31" d="M55.5,28.4c-0.5-0.6-0.9-1.1-1.3-1.7C52.1,23.6,51,20,51,16.2c0-0.5,0-0.9,0.1-1.3c0-0.2,0-0.4,0.1-0.6
		c0-0.2,0-0.5,0.1-0.7c0-0.3,0.1-0.5,0.1-0.8c0-0.2,0.1-0.3,0.1-0.5c0.1-0.3,0.1-0.6,0.2-0.9c0-0.1,0.1-0.2,0.1-0.3
		c0.1-0.3,0.2-0.7,0.3-1c0-0.1,0-0.1,0.1-0.2c0.1-0.4,0.3-0.7,0.4-1.1c0,0,0-0.1,0.1-0.1c0.2-0.4,0.3-0.7,0.5-1.1c0,0,0,0,0,0
		c0.2-0.4,0.4-0.7,0.6-1.1c0.1-0.2,0.3-0.5,0.4-0.7c0.2-0.2,0.3-0.5,0.5-0.7c-1-1-2.2-2-3.4-2.7C48.9,0.8,46.1,0,43.1,0
		c-4.9,0-9.4,2.2-12.4,5.8c-0.4,0.5-0.8,0.9-1.1,1.5c-1.7,2.6-2.7,5.7-2.7,9s1,6.4,2.7,9c0.3,0.5,0.7,1,1.1,1.5
		c3,3.5,7.4,5.8,12.4,5.8c2.5,0,4.9-0.6,7.1-1.7c0.3,0.5,0.7,0.9,1,1.3c1.4,1.6,3,3.1,4.7,4.3l3.2-4.6
		C57.8,30.8,56.6,29.7,55.5,28.4z M33.5,20.9c-0.7-1.4-1.1-3-1.1-4.7c0-1.7,0.4-3.3,1.1-4.7c1.7-3.6,5.4-6,9.6-6
		c1.6,0,3,0.3,4.4,0.9c-1.3,3-2,6.3-2,9.8c0,3.5,0.7,6.8,2,9.8c-1.3,0.6-2.8,0.9-4.4,0.9C38.9,26.9,35.2,24.4,33.5,20.9z"/>
	<path fill="#CF0F31" d="M78.9,22.2C77,25,73.7,26.9,70,26.9c-4.2,0-7.9-2.5-9.6-6c-0.7-1.4-1.1-3-1.1-4.7c0-1.7,0.4-3.3,1.1-4.7
		c1.7-3.6,5.4-6,9.6-6c2.2,0,4.3,0.7,6,1.9l3.1-4.5C76.6,1.1,73.4,0,70,0c-4.9,0-9.4,2.2-12.4,5.7c-0.4,0.5-0.8,0.9-1.1,1.5
		c-1.7,2.6-2.7,5.7-2.7,9c0,3.3,1,6.4,2.7,9c0.3,0.5,0.7,1,1.1,1.5c3,3.5,7.4,5.8,12.4,5.8c4.6,0,8.7-1.9,11.6-5
		c-0.2-0.2-0.3-0.5-0.5-0.7C80.2,25.3,79.4,23.8,78.9,22.2z"/>
	<path fill="#CF0F31" d="M105.8,22.2c-1.9,2.9-5.2,4.8-8.9,4.8c-2,0-3.8-0.6-5.4-1.5c-1.8-1.1-3.3-2.6-4.2-4.5c0,0,0,0,0,0
		c-0.7-1.4-1.1-3-1.1-4.7c0-1.7,0.4-3.3,1.1-4.7c0,0,0,0,0,0C88.2,9.6,89.7,8,91.5,7c1.6-0.9,3.5-1.5,5.4-1.5c2.3,0,4.5,0.8,6.3,2
		l3.1-4.4c-2.7-1.9-5.9-3.1-9.4-3.1c-3,0-5.8,0.8-8.2,2.2c-1.6,0.9-3,2.1-4.2,3.5c0,0,0,0,0,0c-0.4,0.5-0.8,0.9-1.1,1.4
		c-1.7,2.6-2.7,5.7-2.7,9s1,6.4,2.7,9c0.3,0.5,0.7,1,1.1,1.4c0,0,0,0,0,0c1.2,1.4,2.6,2.6,4.2,3.5c2.4,1.4,5.2,2.2,8.2,2.2
		c4.6,0,8.7-1.9,11.6-5c-0.2-0.2-0.3-0.5-0.5-0.7C107.1,25.3,106.3,23.8,105.8,22.2z"/>
</g>
<g>
	<polygon fill="none" points="178.9,35.9 184.5,28.9 173.4,28.9 	"/>
	<path d="M211.1,39.9c0-3.4,2.7-6.1,6.1-6.1c3.4,0,6.1,2.7,6.1,6.1c0,1.9-0.8,3.5-2.2,4.7c1,0.1,1.9,0.2,2.9,0.3
		c1-1.4,1.6-3.1,1.6-5c0-4.7-3.8-8.5-8.5-8.5c-4.7,0-8.5,3.8-8.5,8.5c0,1.4,0.3,2.7,0.9,3.9c0.9,0,1.9,0.1,2.9,0.1
		C211.6,42.8,211.1,41.4,211.1,39.9z"/>
	<path d="M193.5,43.6c0.3-3.1,2.9-5.6,6.1-5.6c3.2,0,5.9,2.5,6.1,5.7c0.8,0,1.6,0,2.4,0.1c-0.2-4.5-3.9-8.1-8.5-8.1
		c-4.4,0-8,3.3-8.5,7.5c0.6,0.3,1.2,0.4,2,0.4C193.2,43.6,193.3,43.6,193.5,43.6z"/>
	<path fill="#D80C18" d="M199.6,38c-3.2,0-5.8,2.5-6.1,5.6c0.7,0,1.7,0,2.9,0c2.4,0,5.6,0,9.3,0C205.5,40.5,202.8,38,199.6,38z"/>
	<path d="M165.6,45.3c0,1.3-1.5,1.7-2.7,1.8v2.3c2.5-0.1,5.1-1.2,5.1-4.1c0-2.2,0-16.3,0-16.4l-1.2,0h-1.2
		C165.7,29.1,165.6,43.1,165.6,45.3z"/>
	<path d="M224.1,44.9c-1-0.1-2-0.2-2.9-0.3c-3.1-0.3-6-0.5-8.6-0.7c-1-0.1-2-0.1-2.9-0.1c-0.5,0-1,0-1.5-0.1c-0.8,0-1.6,0-2.4-0.1
		c-3.7-0.1-6.9,0-9.3,0c-1.2,0-2.2,0-2.9,0c-0.1,0-0.3,0-0.4,0c-0.8,0-1.4-0.2-2-0.4c-1.9-0.9-2.7-2.8-3-3.8
		c-0.5-2.2-2-10.3-1.9-10.3l0-0.2h-1.7l-5.6,7.1l-5.5-7.1h-1.8l-1.7,13.4h2.4l1.1-10.1l5,6.8h0.9l5.2-6.8c0.5,2.5,1.2,6,1.5,7.4
		c0.2,0.9,0.7,2.5,1.9,4c0.9,1.1,2,1.8,3.3,2.1c0.6,0.2,1.2,0.3,1.8,0.3c0.2,0,0.4,0,0.7,0c0.7,0,1.6,0,2.6,0c2.4,0,5.4,0,9,0
		c0.8,0,1.6,0,2.4,0.1c1.2,0,2.4,0.1,3.6,0.1c3.1,0.1,6.6,0.4,10.4,0.8c5.5,0.6,11.7,1.5,18.5,2.9v-2.4
		C234.5,46.3,229,45.4,224.1,44.9z"/>
	<polygon fill="#E1003B" points="165.7,28.9 166.8,28.9 165.7,28.9 	"/>
	<g>
		<path fill="#428AB7" d="M199.6,50.2c-1.9,0-3.7-0.9-4.8-2.3c-0.7,0-1.3,0-1.7,0c-0.4,0-0.8-0.1-1.1-0.1c1.4,2.9,4.3,4.8,7.7,4.8
			c3.3,0,6.2-1.9,7.6-4.6c-1,0-1.9,0-2.8-0.1C203.3,49.3,201.5,50.2,199.6,50.2z"/>
		<path fill="#7EBBE1" d="M196.4,47.9c-0.6,0-1.1,0-1.6,0c1.1,1.4,2.9,2.3,4.8,2.3c1.9,0,3.7-0.9,4.8-2.3
			C201.2,47.9,198.6,47.9,196.4,47.9z"/>
	</g>
	<g>
		<path d="M235.1,43.4c-3.4,0-6.1-2.7-6.1-6.1c0-3.4,2.7-6.1,6.1-6.1c2.1,0,3.9,1,5,2.6l1.7-1.7c-1.6-2-4-3.3-6.7-3.3
			c-4.7,0-8.5,3.8-8.5,8.5s3.8,8.5,8.5,8.5c2.7,0,5.2-1.3,6.7-3.3l-1.7-1.7C239,42.4,237.2,43.4,235.1,43.4z"/>
	</g>
</g>
<g enable-background="new    ">
	<path d="M167.3,21.5c-1.2,0-2.2-0.4-2.9-1.1c-0.7-0.7-1.1-1.8-1.1-3.2c0-1.3,0.4-2.4,1.1-3.2c0.7-0.8,1.7-1.2,2.9-1.2
		c0.9,0,1.8,0.2,2.7,0.7v1.2H170c-0.9-0.7-1.8-1.1-2.7-1.1c-0.9,0-1.6,0.3-2.1,0.9c-0.5,0.6-0.8,1.5-0.8,2.5c0,1.1,0.3,1.9,0.8,2.5
		c0.5,0.6,1.2,0.9,2.1,0.9c0.5,0,0.9-0.1,1.3-0.2c0.4-0.1,0.9-0.4,1.4-0.9h0.1v1.2c-0.7,0.3-1.3,0.5-1.6,0.6
		C168,21.5,167.7,21.5,167.3,21.5z"/>
	<path d="M174.2,21.5c-1,0-1.8-0.3-2.4-0.8c-0.6-0.6-0.9-1.4-0.9-2.4c0-1,0.3-1.8,0.8-2.4c0.5-0.6,1.3-0.9,2.2-0.9
		c0.8,0,1.5,0.2,1.9,0.7c0.5,0.5,0.7,1.2,0.7,2.1v0.5h-4.6c0,0.7,0.2,1.3,0.6,1.7c0.4,0.4,1,0.6,1.7,0.6c0.7,0,1.4-0.2,2.1-0.7h0V21
		C175.5,21.4,174.8,21.5,174.2,21.5z M171.9,17.6h3.7c0-1.2-0.6-1.9-1.7-1.9c-0.6,0-1,0.2-1.4,0.5C172.2,16.6,172,17.1,171.9,17.6z"
		/>
	<path d="M177.9,21.4v-6.2h1v1c0.8-0.6,1.5-1,2.2-1c0.2,0,0.5,0,0.7,0.1v1h0c-0.3-0.1-0.6-0.1-0.9-0.1c-0.6,0-1.3,0.3-1.9,0.8v4.5
		H177.9z"/>
	<path d="M184.7,21.5c-1.3,0-1.9-0.7-1.9-2.1V16H182v-0.8h0.7v-1.8h1v1.8h2.2V16h-2.2v2.9c0,0.7,0,1.1,0.1,1.3
		c0.1,0.2,0.2,0.3,0.4,0.4c0.2,0.1,0.4,0.1,0.7,0.1c0.3,0,0.6-0.1,0.9-0.2h0v0.9C185.5,21.5,185.1,21.5,184.7,21.5z"/>
	<path d="M188,13.9h-1.1v-1h1.1V13.9z M188,21.4h-1v-6.2h1V21.4z"/>
	<path d="M194.6,21.4h-1v-5.5h-2.8v5.5h-1V16h-0.7v-0.8h0.7v-0.2c0-0.7,0.2-1.3,0.6-1.7c0.4-0.4,0.9-0.6,1.6-0.6
		c0.3,0,0.7,0,1.1,0.1v0.9h0c-0.3-0.1-0.6-0.2-0.9-0.2c-0.5,0-0.8,0.1-1.1,0.3c-0.2,0.2-0.3,0.6-0.3,1.1v0.2h3.8V21.4z M194.7,13.9
		h-1.1v-1h1.1V13.9z"/>
	<path d="M199.3,21.5c-1,0-1.8-0.3-2.4-0.8c-0.6-0.6-0.9-1.4-0.9-2.4c0-1,0.3-1.8,0.8-2.4c0.5-0.6,1.3-0.9,2.2-0.9
		c0.8,0,1.5,0.2,1.9,0.7c0.5,0.5,0.7,1.2,0.7,2.1v0.5h-4.6c0,0.7,0.2,1.3,0.6,1.7c0.4,0.4,1,0.6,1.7,0.6c0.7,0,1.4-0.2,2.1-0.7h0V21
		C200.6,21.4,199.9,21.5,199.3,21.5z M197.1,17.6h3.7c0-1.2-0.6-1.9-1.7-1.9c-0.6,0-1,0.2-1.4,0.5C197.3,16.6,197.1,17.1,197.1,17.6
		z"/>
	<path d="M207.1,21.4v-0.7c-0.7,0.6-1.4,0.9-2.1,0.9c-0.7,0-1.3-0.3-1.8-0.9c-0.4-0.6-0.7-1.4-0.7-2.4c0-1,0.3-1.8,0.8-2.4
		c0.5-0.6,1.2-0.9,1.9-0.9c0.5,0,1.1,0.2,1.7,0.5v-2.8h1v8.7H207.1z M207.1,19.9v-3.7c-0.5-0.3-1.1-0.4-1.5-0.4
		c-0.6,0-1.1,0.2-1.4,0.6c-0.3,0.4-0.5,1-0.5,1.8c0,1.6,0.6,2.3,1.7,2.3C205.9,20.6,206.5,20.4,207.1,19.9z"/>
	<path d="M214.7,21.1l-0.1,0.3h-0.9v-8.7h1v3.1c0.7-0.6,1.4-0.9,2.1-0.9c0.7,0,1.3,0.3,1.7,0.9c0.4,0.6,0.7,1.4,0.7,2.4
		c0,1-0.3,1.8-0.8,2.4c-0.5,0.6-1.2,0.9-2,0.9C215.8,21.6,215.3,21.4,214.7,21.1z M214.7,16.6v3.7c0.6,0.2,1.1,0.4,1.5,0.4
		c0.6,0,1.1-0.2,1.4-0.6c0.3-0.4,0.5-1,0.5-1.8c0-1.6-0.6-2.3-1.7-2.3C215.9,15.9,215.3,16.1,214.7,16.6z"/>
	<path d="M225.9,15.2l-3.7,8.5h-1l1.2-2.6l-2.5-6h1.1l2,4.7l2-4.7H225.9z"/>
</g>
</svg>
