<?xml version="1.0" encoding="utf-8"?>
<!-- Generator: Adobe Illustrator 16.0.0, SVG Export Plug-In . SVG Version: 6.00 Build 0)  -->
<!DOCTYPE svg PUBLIC "-//W3C//DTD SVG 1.1//EN" "http://www.w3.org/Graphics/SVG/1.1/DTD/svg11.dtd">
<svg version="1.1" id="レイヤー_1" xmlns="http://www.w3.org/2000/svg" xmlns:xlink="http://www.w3.org/1999/xlink" x="0px"
	 y="0px" width="87.223px" height="55.571px" viewBox="0 0 87.223 55.571" enable-background="new 0 0 87.223 55.571"
	 xml:space="preserve">
<g>
	<rect x="0.218" fill="#FFFFFF" width="86.569" height="55.571"/>
	<polygon fill="#00087A" points="36.118,17.715 41.044,17.715 34.507,39.206 29.581,39.206 	"/>
	<path fill="#00087A" d="M58.39,19.555l-1.897,3.567c0,0-6.154-4.203-8.139-1.301c-1.976,2.917,1.66,4.465,3.314,5.857
		c1.68,1.354,2.965,4.441,1.971,6.858c-1.232,3.028-3.363,5.484-8.834,4.717c-5.483-0.747-5.92-1.664-5.92-1.664l2.441-4.082
		c0,0,0.597,1.247,4.387,1.621c2.723,0.262,3.641-0.446,4.033-1.951c0.461-1.757-2.984-3.708-3.747-4.174
		c-0.757-0.456-4.174-4.718-1.713-8.653c2.96-4.723,6.774-3.043,8.45-3.043C54.401,17.308,58.39,19.555,58.39,19.555z"/>
	<path fill="#00087A" d="M53.538,39.064l13.244-21.232h4.857l0.709,21.364h-5.023v-4.718h-6.896l-2.883,4.718L53.538,39.064z
		 M61.497,32.493h5.828v-9.75L61.497,32.493z"/>
	<polyline fill="none" points="39.583,27.688 35.934,26.185 46.592,26.185 	"/>
	<rect x="0.218" fill="#00087A" width="87.005" height="14.939"/>
	<rect y="41.651" fill="#FA9E00" width="86.996" height="13.92"/>
	<rect y="19.651" fill="none" width="86.996" height="16.249"/>
	<polygon fill="#00087A" points="9.439,17.657 19.714,17.657 19.714,33.43 29.382,17.608 33.944,17.608 21.073,39.152 
		14.516,39.152 14.516,19.259 	"/>
</g>
</svg>
